<svg xmlns="http://www.w3.org/2000/svg" viewBox="0 0 800 540" width="800" height="540" role="img" font-family="Inter, -apple-system, Segoe UI, Helvetica, Arial, sans-serif">
<title>Cheapest path A, C, D, E, G</title><rect width="800" height="540" fill="#ffffff"/>
<defs><marker id="an" viewBox="0 0 10 10" refX="9" refY="5" markerWidth="7" markerHeight="7" orient="auto-start-reverse"><path d="M0 0L10 5L0 10z" fill="#334155"/></marker><marker id="ah" viewBox="0 0 10 10" refX="9" refY="5" markerWidth="7" markerHeight="7" orient="auto-start-reverse"><path d="M0 0L10 5L0 10z" fill="#2563eb"/></marker></defs>
<line x1="89.9" y1="209.7" x2="215.9" y2="90.3" stroke="#334155" stroke-width="2" marker-end="url(#an)"/>
<rect x="125.2" y="120.5" width="30" height="28" rx="6" fill="#ffffff" stroke="#cbd5e1"/>
<text x="140.2" y="140.5" text-anchor="middle" font-size="17" font-weight="600" fill="#334155">10</text>
<line x1="84.8" y1="274.9" x2="173.3" y2="389.8" stroke="#2563eb" stroke-width="3" marker-end="url(#ah)"/>
<rect x="130.8" y="307.3" width="30" height="28" rx="6" fill="#dbeafe" stroke="#2563eb"/>
<text x="145.8" y="327.3" text-anchor="middle" font-size="17" font-weight="600" fill="#2563eb">5</text>
<line x1="290.7" y1="74.7" x2="504.5" y2="162.2" stroke="#334155" stroke-width="2" marker-end="url(#an)"/>
<rect x="391.6" y="86.5" width="30" height="28" rx="6" fill="#ffffff" stroke="#cbd5e1"/>
<text x="406.6" y="106.5" text-anchor="middle" font-size="17" font-weight="600" fill="#334155">8</text>
<line x1="268.9" y1="97.7" x2="317.8" y2="200.6" stroke="#334155" stroke-width="2" marker-end="url(#an)"/>
<rect x="297.1" y="127.9" width="30" height="28" rx="6" fill="#ffffff" stroke="#cbd5e1"/>
<text x="312.1" y="147.9" text-anchor="middle" font-size="17" font-weight="600" fill="#334155">3</text>
<line x1="228.2" y1="391.6" x2="310.1" y2="280.8" stroke="#2563eb" stroke-width="3" marker-end="url(#ah)"/>
<rect x="238.9" y="309.1" width="30" height="28" rx="6" fill="#dbeafe" stroke="#2563eb"/>
<text x="253.9" y="329.1" text-anchor="middle" font-size="17" font-weight="600" fill="#2563eb">2</text>
<line x1="245.4" y1="434.5" x2="460.7" y2="472.0" stroke="#334155" stroke-width="2" marker-end="url(#an)"/>
<rect x="342.9" y="419.8" width="30" height="28" rx="6" fill="#ffffff" stroke="#cbd5e1"/>
<text x="357.9" y="439.8" text-anchor="middle" font-size="17" font-weight="600" fill="#334155">4</text>
<line x1="380.1" y1="230.4" x2="503.0" y2="193.5" stroke="#2563eb" stroke-width="3" marker-end="url(#ah)"/>
<rect x="422.3" y="178.3" width="30" height="28" rx="6" fill="#dbeafe" stroke="#2563eb"/>
<text x="437.3" y="198.3" text-anchor="middle" font-size="17" font-weight="600" fill="#2563eb">1</text>
<line x1="363.5" y1="278.8" x2="479.7" y2="441.7" stroke="#334155" stroke-width="2" marker-end="url(#an)"/>
<rect x="423.8" y="335.9" width="30" height="28" rx="6" fill="#ffffff" stroke="#cbd5e1"/>
<text x="438.8" y="355.9" text-anchor="middle" font-size="17" font-weight="600" fill="#334155">6</text>
<line x1="513.0" y1="436.4" x2="541.6" y2="226.6" stroke="#334155" stroke-width="2" marker-end="url(#an)"/>
<rect x="492.7" y="313.3" width="30" height="28" rx="6" fill="#ffffff" stroke="#cbd5e1"/>
<text x="507.7" y="333.3" text-anchor="middle" font-size="17" font-weight="600" fill="#334155">1</text>
<line x1="587.2" y1="199.9" x2="697.1" y2="255.7" stroke="#2563eb" stroke-width="3" marker-end="url(#ah)"/>
<rect x="637.6" y="196.7" width="30" height="28" rx="6" fill="#dbeafe" stroke="#2563eb"/>
<text x="652.6" y="216.7" text-anchor="middle" font-size="17" font-weight="600" fill="#2563eb">2</text>
<circle cx="58" cy="240" r="44" fill="#dbeafe" stroke="#2563eb" stroke-width="3"/>
<text x="58" y="250" text-anchor="middle" font-size="30" font-weight="600" fill="#111827">A</text>
<circle cx="250" cy="58" r="44" fill="#ffffff" stroke="#334155" stroke-width="2"/>
<text x="250" y="68" text-anchor="middle" font-size="30" font-weight="600" fill="#111827">B</text>
<circle cx="202" cy="427" r="44" fill="#dbeafe" stroke="#2563eb" stroke-width="3"/>
<text x="202" y="437" text-anchor="middle" font-size="30" font-weight="600" fill="#111827">C</text>
<circle cx="338" cy="243" r="44" fill="#dbeafe" stroke="#2563eb" stroke-width="3"/>
<text x="338" y="253" text-anchor="middle" font-size="30" font-weight="600" fill="#111827">D</text>
<circle cx="548" cy="180" r="44" fill="#dbeafe" stroke="#2563eb" stroke-width="3"/>
<text x="548" y="190" text-anchor="middle" font-size="30" font-weight="600" fill="#111827">E</text>
<circle cx="507" cy="480" r="44" fill="#ffffff" stroke="#334155" stroke-width="2"/>
<text x="507" y="490" text-anchor="middle" font-size="30" font-weight="600" fill="#111827">F</text>
<circle cx="739" cy="277" r="44" fill="#dbeafe" stroke="#2563eb" stroke-width="3"/>
<text x="739" y="287" text-anchor="middle" font-size="30" font-weight="600" fill="#111827">G</text>
</svg>